<svg width="1306" height="1024" viewBox="0 0 1306 1024" fill="none" xmlns="http://www.w3.org/2000/svg">
<g clip-path="url(#clip0_1_775)">
<rect x="0.5" y="-46" width="1305" height="1305" rx="652.5" fill="url(#paint0_radial_1_775)"/>
<path d="M73 -46H0.5V26.5H73V-46Z" stroke="#53655E" stroke-opacity="0.07" stroke-width="3"/>
<path d="M145.5 -46H73V26.5H145.5V-46Z" stroke="#53655E" stroke-opacity="0.07" stroke-width="3"/>
<path d="M218 -46H145.5V26.5H218V-46Z" stroke="#53655E" stroke-opacity="0.07" stroke-width="3"/>
<path d="M290.5 -46H218V26.5H290.5V-46Z" stroke="#53655E" stroke-opacity="0.07" stroke-width="3"/>
<path d="M363 -46H290.5V26.5H363V-46Z" stroke="#53655E" stroke-opacity="0.07" stroke-width="3"/>
<path d="M435.5 -46H363V26.5H435.5V-46Z" stroke="#53655E" stroke-opacity="0.07" stroke-width="3"/>
<path d="M508 -46H435.5V26.5H508V-46Z" stroke="#53655E" stroke-opacity="0.07" stroke-width="3"/>
<path d="M580.5 -46H508V26.5H580.5V-46Z" stroke="#53655E" stroke-opacity="0.07" stroke-width="3"/>
<path d="M653 -46H580.5V26.5H653V-46Z" stroke="#53655E" stroke-opacity="0.07" stroke-width="3"/>
<path d="M725.5 -46H653V26.5H725.5V-46Z" stroke="#53655E" stroke-opacity="0.07" stroke-width="3"/>
<path d="M798 -46H725.5V26.5H798V-46Z" stroke="#53655E" stroke-opacity="0.07" stroke-width="3"/>
<path d="M870.5 -46H798V26.5H870.5V-46Z" stroke="#53655E" stroke-opacity="0.07" stroke-width="3"/>
<path d="M943 -46H870.5V26.5H943V-46Z" stroke="#53655E" stroke-opacity="0.07" stroke-width="3"/>
<path d="M1015.5 -46H943V26.5H1015.5V-46Z" stroke="#53655E" stroke-opacity="0.07" stroke-width="3"/>
<path d="M1088 -46H1015.5V26.5H1088V-46Z" stroke="#53655E" stroke-opacity="0.07" stroke-width="3"/>
<path d="M1160.5 -46H1088V26.5H1160.5V-46Z" stroke="#53655E" stroke-opacity="0.07" stroke-width="3"/>
<path d="M1233 -46H1160.5V26.5H1233V-46Z" stroke="#53655E" stroke-opacity="0.07" stroke-width="3"/>
<path d="M1305.5 -46H1233V26.5H1305.5V-46Z" stroke="#53655E" stroke-opacity="0.07" stroke-width="3"/>
<path d="M1378 -46H1305.5V26.5H1378V-46Z" stroke="#53655E" stroke-opacity="0.07" stroke-width="3"/>
<path d="M73 26.5H0.5V99H73V26.5Z" stroke="#53655E" stroke-opacity="0.07" stroke-width="3"/>
<path d="M145.5 26.5H73V99H145.5V26.5Z" stroke="#53655E" stroke-opacity="0.07" stroke-width="3"/>
<path d="M218 26.5H145.5V99H218V26.5Z" stroke="#53655E" stroke-opacity="0.07" stroke-width="3"/>
<path d="M290.5 26.5H218V99H290.5V26.5Z" stroke="#53655E" stroke-opacity="0.07" stroke-width="3"/>
<path d="M363 26.5H290.5V99H363V26.5Z" stroke="#53655E" stroke-opacity="0.07" stroke-width="3"/>
<path d="M435.5 26.5H363V99H435.5V26.5Z" stroke="#53655E" stroke-opacity="0.07" stroke-width="3"/>
<path d="M508 26.5H435.5V99H508V26.5Z" stroke="#53655E" stroke-opacity="0.07" stroke-width="3"/>
<path d="M580.5 26.5H508V99H580.5V26.5Z" stroke="#53655E" stroke-opacity="0.07" stroke-width="3"/>
<path d="M653 26.5H580.5V99H653V26.5Z" stroke="#53655E" stroke-opacity="0.07" stroke-width="3"/>
<path d="M725.5 26.5H653V99H725.5V26.5Z" stroke="#53655E" stroke-opacity="0.07" stroke-width="3"/>
<path d="M798 26.5H725.5V99H798V26.5Z" stroke="#53655E" stroke-opacity="0.07" stroke-width="3"/>
<path d="M870.5 26.5H798V99H870.5V26.5Z" stroke="#53655E" stroke-opacity="0.07" stroke-width="3"/>
<path d="M943 26.5H870.5V99H943V26.5Z" stroke="#53655E" stroke-opacity="0.07" stroke-width="3"/>
<path d="M1015.5 26.5H943V99H1015.5V26.5Z" stroke="#53655E" stroke-opacity="0.07" stroke-width="3"/>
<path d="M1088 26.5H1015.5V99H1088V26.5Z" stroke="#53655E" stroke-opacity="0.07" stroke-width="3"/>
<path d="M1160.5 26.5H1088V99H1160.5V26.5Z" stroke="#53655E" stroke-opacity="0.07" stroke-width="3"/>
<path d="M1233 26.5H1160.5V99H1233V26.5Z" stroke="#53655E" stroke-opacity="0.07" stroke-width="3"/>
<path d="M1305.5 26.5H1233V99H1305.5V26.5Z" stroke="#53655E" stroke-opacity="0.07" stroke-width="3"/>
<path d="M1378 26.5H1305.5V99H1378V26.5Z" stroke="#53655E" stroke-opacity="0.07" stroke-width="3"/>
<path d="M73 99H0.5V171.5H73V99Z" stroke="#53655E" stroke-opacity="0.07" stroke-width="3"/>
<path d="M145.5 99H73V171.5H145.5V99Z" stroke="#53655E" stroke-opacity="0.07" stroke-width="3"/>
<path d="M218 99H145.5V171.5H218V99Z" stroke="#53655E" stroke-opacity="0.07" stroke-width="3"/>
<path d="M290.5 99H218V171.5H290.5V99Z" stroke="#53655E" stroke-opacity="0.07" stroke-width="3"/>
<path d="M363 99H290.5V171.5H363V99Z" stroke="#53655E" stroke-opacity="0.07" stroke-width="3"/>
<path d="M435.5 99H363V171.5H435.5V99Z" stroke="#53655E" stroke-opacity="0.07" stroke-width="3"/>
<path d="M508 99H435.5V171.5H508V99Z" stroke="#53655E" stroke-opacity="0.07" stroke-width="3"/>
<path d="M580.5 99H508V171.5H580.5V99Z" stroke="#53655E" stroke-opacity="0.07" stroke-width="3"/>
<path d="M653 99H580.5V171.5H653V99Z" stroke="#53655E" stroke-opacity="0.07" stroke-width="3"/>
<path d="M725.5 99H653V171.5H725.5V99Z" stroke="#53655E" stroke-opacity="0.07" stroke-width="3"/>
<path d="M798 99H725.5V171.5H798V99Z" stroke="#53655E" stroke-opacity="0.07" stroke-width="3"/>
<path d="M870.5 99H798V171.5H870.5V99Z" stroke="#53655E" stroke-opacity="0.07" stroke-width="3"/>
<path d="M943 99H870.5V171.5H943V99Z" stroke="#53655E" stroke-opacity="0.07" stroke-width="3"/>
<path d="M1015.5 99H943V171.5H1015.5V99Z" stroke="#53655E" stroke-opacity="0.07" stroke-width="3"/>
<path d="M1088 99H1015.5V171.5H1088V99Z" stroke="#53655E" stroke-opacity="0.07" stroke-width="3"/>
<path d="M1160.5 99H1088V171.5H1160.5V99Z" stroke="#53655E" stroke-opacity="0.07" stroke-width="3"/>
<path d="M1233 99H1160.5V171.5H1233V99Z" stroke="#53655E" stroke-opacity="0.07" stroke-width="3"/>
<path d="M1305.5 99H1233V171.5H1305.5V99Z" stroke="#53655E" stroke-opacity="0.07" stroke-width="3"/>
<path d="M1378 99H1305.5V171.5H1378V99Z" stroke="#53655E" stroke-opacity="0.07" stroke-width="3"/>
<path d="M73 171.5H0.5V244H73V171.5Z" stroke="#53655E" stroke-opacity="0.07" stroke-width="3"/>
<path d="M145.5 171.5H73V244H145.5V171.5Z" stroke="#53655E" stroke-opacity="0.07" stroke-width="3"/>
<path d="M218 171.5H145.5V244H218V171.5Z" stroke="#53655E" stroke-opacity="0.07" stroke-width="3"/>
<path d="M290.5 171.5H218V244H290.5V171.5Z" stroke="#53655E" stroke-opacity="0.07" stroke-width="3"/>
<path d="M363 171.5H290.5V244H363V171.5Z" stroke="#53655E" stroke-opacity="0.07" stroke-width="3"/>
<path d="M435.5 171.5H363V244H435.5V171.5Z" stroke="#53655E" stroke-opacity="0.07" stroke-width="3"/>
<path d="M508 171.5H435.5V244H508V171.5Z" stroke="#53655E" stroke-opacity="0.07" stroke-width="3"/>
<path d="M580.5 171.5H508V244H580.5V171.5Z" stroke="#53655E" stroke-opacity="0.07" stroke-width="3"/>
<path d="M653 171.5H580.5V244H653V171.5Z" stroke="#53655E" stroke-opacity="0.07" stroke-width="3"/>
<path d="M725.5 171.5H653V244H725.5V171.5Z" stroke="#53655E" stroke-opacity="0.07" stroke-width="3"/>
<path d="M798 171.5H725.5V244H798V171.5Z" stroke="#53655E" stroke-opacity="0.07" stroke-width="3"/>
<path d="M870.5 171.5H798V244H870.5V171.5Z" stroke="#53655E" stroke-opacity="0.07" stroke-width="3"/>
<path d="M943 171.5H870.5V244H943V171.5Z" stroke="#53655E" stroke-opacity="0.07" stroke-width="3"/>
<path d="M1015.5 171.5H943V244H1015.5V171.5Z" stroke="#53655E" stroke-opacity="0.07" stroke-width="3"/>
<path d="M1088 171.5H1015.5V244H1088V171.5Z" stroke="#53655E" stroke-opacity="0.07" stroke-width="3"/>
<path d="M1160.5 171.5H1088V244H1160.5V171.5Z" stroke="#53655E" stroke-opacity="0.07" stroke-width="3"/>
<path d="M1233 171.5H1160.5V244H1233V171.5Z" stroke="#53655E" stroke-opacity="0.07" stroke-width="3"/>
<path d="M1305.5 171.5H1233V244H1305.5V171.5Z" stroke="#53655E" stroke-opacity="0.07" stroke-width="3"/>
<path d="M1378 171.5H1305.5V244H1378V171.5Z" stroke="#53655E" stroke-opacity="0.07" stroke-width="3"/>
<path d="M73 244H0.5V316.5H73V244Z" stroke="#53655E" stroke-opacity="0.07" stroke-width="3"/>
<path d="M145.5 244H73V316.5H145.5V244Z" stroke="#53655E" stroke-opacity="0.07" stroke-width="3"/>
<path d="M218 244H145.5V316.5H218V244Z" stroke="#53655E" stroke-opacity="0.07" stroke-width="3"/>
<path d="M290.5 244H218V316.5H290.5V244Z" stroke="#53655E" stroke-opacity="0.07" stroke-width="3"/>
<path d="M363 244H290.5V316.5H363V244Z" stroke="#53655E" stroke-opacity="0.07" stroke-width="3"/>
<path d="M435.5 244H363V316.5H435.5V244Z" stroke="#53655E" stroke-opacity="0.07" stroke-width="3"/>
<path d="M508 244H435.5V316.5H508V244Z" stroke="#53655E" stroke-opacity="0.07" stroke-width="3"/>
<path d="M580.5 244H508V316.5H580.5V244Z" stroke="#53655E" stroke-opacity="0.07" stroke-width="3"/>
<path d="M653 244H580.5V316.5H653V244Z" stroke="#53655E" stroke-opacity="0.07" stroke-width="3"/>
<path d="M725.5 244H653V316.5H725.5V244Z" stroke="#53655E" stroke-opacity="0.07" stroke-width="3"/>
<path d="M798 244H725.5V316.5H798V244Z" stroke="#53655E" stroke-opacity="0.07" stroke-width="3"/>
<path d="M870.5 244H798V316.5H870.5V244Z" stroke="#53655E" stroke-opacity="0.07" stroke-width="3"/>
<path d="M943 244H870.5V316.5H943V244Z" stroke="#53655E" stroke-opacity="0.07" stroke-width="3"/>
<path d="M1015.5 244H943V316.5H1015.5V244Z" stroke="#53655E" stroke-opacity="0.07" stroke-width="3"/>
<path d="M1088 244H1015.5V316.5H1088V244Z" stroke="#53655E" stroke-opacity="0.07" stroke-width="3"/>
<path d="M1160.5 244H1088V316.5H1160.5V244Z" stroke="#53655E" stroke-opacity="0.07" stroke-width="3"/>
<path d="M1233 244H1160.5V316.5H1233V244Z" stroke="#53655E" stroke-opacity="0.07" stroke-width="3"/>
<path d="M1305.5 244H1233V316.5H1305.5V244Z" stroke="#53655E" stroke-opacity="0.07" stroke-width="3"/>
<path d="M1378 244H1305.5V316.5H1378V244Z" stroke="#53655E" stroke-opacity="0.07" stroke-width="3"/>
<path d="M73 316.5H0.5V389H73V316.5Z" stroke="#53655E" stroke-opacity="0.07" stroke-width="3"/>
<path d="M145.5 316.5H73V389H145.5V316.5Z" stroke="#53655E" stroke-opacity="0.07" stroke-width="3"/>
<path d="M218 316.5H145.5V389H218V316.5Z" stroke="#53655E" stroke-opacity="0.07" stroke-width="3"/>
<path d="M290.5 316.5H218V389H290.5V316.5Z" stroke="#53655E" stroke-opacity="0.07" stroke-width="3"/>
<path d="M363 316.5H290.5V389H363V316.5Z" stroke="#53655E" stroke-opacity="0.07" stroke-width="3"/>
<path d="M435.5 316.5H363V389H435.5V316.5Z" stroke="#53655E" stroke-opacity="0.07" stroke-width="3"/>
<path d="M508 316.5H435.5V389H508V316.5Z" stroke="#53655E" stroke-opacity="0.07" stroke-width="3"/>
<path d="M580.5 316.5H508V389H580.5V316.5Z" stroke="#53655E" stroke-opacity="0.07" stroke-width="3"/>
<path d="M653 316.5H580.5V389H653V316.5Z" stroke="#53655E" stroke-opacity="0.07" stroke-width="3"/>
<path d="M725.5 316.5H653V389H725.5V316.5Z" stroke="#53655E" stroke-opacity="0.07" stroke-width="3"/>
<path d="M798 316.5H725.5V389H798V316.5Z" stroke="#53655E" stroke-opacity="0.07" stroke-width="3"/>
<path d="M870.5 316.5H798V389H870.5V316.5Z" stroke="#53655E" stroke-opacity="0.07" stroke-width="3"/>
<path d="M943 316.5H870.5V389H943V316.5Z" stroke="#53655E" stroke-opacity="0.07" stroke-width="3"/>
<path d="M1015.5 316.5H943V389H1015.5V316.5Z" stroke="#53655E" stroke-opacity="0.07" stroke-width="3"/>
<path d="M1088 316.5H1015.5V389H1088V316.5Z" stroke="#53655E" stroke-opacity="0.07" stroke-width="3"/>
<path d="M1160.5 316.5H1088V389H1160.5V316.5Z" stroke="#53655E" stroke-opacity="0.07" stroke-width="3"/>
<path d="M1233 316.5H1160.5V389H1233V316.5Z" stroke="#53655E" stroke-opacity="0.07" stroke-width="3"/>
<path d="M1305.5 316.5H1233V389H1305.5V316.5Z" stroke="#53655E" stroke-opacity="0.07" stroke-width="3"/>
<path d="M1378 316.5H1305.5V389H1378V316.5Z" stroke="#53655E" stroke-opacity="0.07" stroke-width="3"/>
<path d="M73 389H0.5V461.5H73V389Z" stroke="#53655E" stroke-opacity="0.07" stroke-width="3"/>
<path d="M145.5 389H73V461.5H145.5V389Z" stroke="#53655E" stroke-opacity="0.07" stroke-width="3"/>
<path d="M218 389H145.5V461.5H218V389Z" stroke="#53655E" stroke-opacity="0.07" stroke-width="3"/>
<path d="M290.5 389H218V461.5H290.5V389Z" stroke="#53655E" stroke-opacity="0.07" stroke-width="3"/>
<path d="M363 389H290.5V461.5H363V389Z" stroke="#53655E" stroke-opacity="0.07" stroke-width="3"/>
<path d="M435.5 389H363V461.5H435.5V389Z" stroke="#53655E" stroke-opacity="0.07" stroke-width="3"/>
<path d="M508 389H435.5V461.5H508V389Z" stroke="#53655E" stroke-opacity="0.07" stroke-width="3"/>
<path d="M580.5 389H508V461.5H580.5V389Z" stroke="#53655E" stroke-opacity="0.07" stroke-width="3"/>
<path d="M653 389H580.5V461.5H653V389Z" stroke="#53655E" stroke-opacity="0.07" stroke-width="3"/>
<path d="M725.5 389H653V461.5H725.5V389Z" stroke="#53655E" stroke-opacity="0.07" stroke-width="3"/>
<path d="M798 389H725.5V461.5H798V389Z" stroke="#53655E" stroke-opacity="0.07" stroke-width="3"/>
<path d="M870.5 389H798V461.5H870.5V389Z" stroke="#53655E" stroke-opacity="0.07" stroke-width="3"/>
<path d="M943 389H870.5V461.5H943V389Z" stroke="#53655E" stroke-opacity="0.07" stroke-width="3"/>
<path d="M1015.5 389H943V461.5H1015.5V389Z" stroke="#53655E" stroke-opacity="0.07" stroke-width="3"/>
<path d="M1088 389H1015.5V461.5H1088V389Z" stroke="#53655E" stroke-opacity="0.07" stroke-width="3"/>
<path d="M1160.5 389H1088V461.5H1160.5V389Z" stroke="#53655E" stroke-opacity="0.07" stroke-width="3"/>
<path d="M1233 389H1160.5V461.5H1233V389Z" stroke="#53655E" stroke-opacity="0.07" stroke-width="3"/>
<path d="M1305.5 389H1233V461.5H1305.5V389Z" stroke="#53655E" stroke-opacity="0.07" stroke-width="3"/>
<path d="M1378 389H1305.5V461.5H1378V389Z" stroke="#53655E" stroke-opacity="0.07" stroke-width="3"/>
<path d="M73 461.5H0.5V534H73V461.5Z" stroke="#53655E" stroke-opacity="0.07" stroke-width="3"/>
<path d="M145.5 461.5H73V534H145.5V461.5Z" stroke="#53655E" stroke-opacity="0.07" stroke-width="3"/>
<path d="M218 461.5H145.5V534H218V461.5Z" stroke="#53655E" stroke-opacity="0.07" stroke-width="3"/>
<path d="M290.5 461.5H218V534H290.5V461.5Z" stroke="#53655E" stroke-opacity="0.07" stroke-width="3"/>
<path d="M363 461.5H290.5V534H363V461.5Z" stroke="#53655E" stroke-opacity="0.07" stroke-width="3"/>
<path d="M435.5 461.5H363V534H435.5V461.5Z" stroke="#53655E" stroke-opacity="0.07" stroke-width="3"/>
<path d="M508 461.5H435.5V534H508V461.5Z" stroke="#53655E" stroke-opacity="0.07" stroke-width="3"/>
<path d="M580.5 461.5H508V534H580.5V461.5Z" stroke="#53655E" stroke-opacity="0.07" stroke-width="3"/>
<path d="M653 461.5H580.5V534H653V461.5Z" stroke="#53655E" stroke-opacity="0.07" stroke-width="3"/>
<path d="M725.5 461.5H653V534H725.5V461.5Z" stroke="#53655E" stroke-opacity="0.07" stroke-width="3"/>
<path d="M798 461.5H725.5V534H798V461.5Z" stroke="#53655E" stroke-opacity="0.07" stroke-width="3"/>
<path d="M870.5 461.5H798V534H870.5V461.5Z" stroke="#53655E" stroke-opacity="0.07" stroke-width="3"/>
<path d="M943 461.5H870.5V534H943V461.5Z" stroke="#53655E" stroke-opacity="0.07" stroke-width="3"/>
<path d="M1015.5 461.5H943V534H1015.5V461.5Z" stroke="#53655E" stroke-opacity="0.07" stroke-width="3"/>
<path d="M1088 461.5H1015.5V534H1088V461.5Z" stroke="#53655E" stroke-opacity="0.07" stroke-width="3"/>
<path d="M1160.5 461.5H1088V534H1160.5V461.5Z" stroke="#53655E" stroke-opacity="0.07" stroke-width="3"/>
<path d="M1233 461.5H1160.5V534H1233V461.5Z" stroke="#53655E" stroke-opacity="0.07" stroke-width="3"/>
<path d="M1305.5 461.5H1233V534H1305.5V461.5Z" stroke="#53655E" stroke-opacity="0.07" stroke-width="3"/>
<path d="M1378 461.5H1305.5V534H1378V461.5Z" stroke="#53655E" stroke-opacity="0.07" stroke-width="3"/>
<path d="M73 534H0.5V606.5H73V534Z" stroke="#53655E" stroke-opacity="0.07" stroke-width="3"/>
<path d="M145.5 534H73V606.5H145.5V534Z" stroke="#53655E" stroke-opacity="0.07" stroke-width="3"/>
<path d="M218 534H145.5V606.5H218V534Z" stroke="#53655E" stroke-opacity="0.07" stroke-width="3"/>
<path d="M290.5 534H218V606.5H290.5V534Z" stroke="#53655E" stroke-opacity="0.07" stroke-width="3"/>
<path d="M363 534H290.5V606.5H363V534Z" stroke="#53655E" stroke-opacity="0.07" stroke-width="3"/>
<path d="M435.5 534H363V606.5H435.5V534Z" stroke="#53655E" stroke-opacity="0.07" stroke-width="3"/>
<path d="M508 534H435.5V606.5H508V534Z" stroke="#53655E" stroke-opacity="0.07" stroke-width="3"/>
<path d="M580.5 534H508V606.5H580.5V534Z" stroke="#53655E" stroke-opacity="0.07" stroke-width="3"/>
<path d="M653 534H580.5V606.5H653V534Z" stroke="#53655E" stroke-opacity="0.07" stroke-width="3"/>
<path d="M725.5 534H653V606.5H725.5V534Z" stroke="#53655E" stroke-opacity="0.07" stroke-width="3"/>
<path d="M798 534H725.5V606.5H798V534Z" stroke="#53655E" stroke-opacity="0.07" stroke-width="3"/>
<path d="M870.5 534H798V606.5H870.5V534Z" stroke="#53655E" stroke-opacity="0.07" stroke-width="3"/>
<path d="M943 534H870.5V606.5H943V534Z" stroke="#53655E" stroke-opacity="0.07" stroke-width="3"/>
<path d="M1015.5 534H943V606.5H1015.5V534Z" stroke="#53655E" stroke-opacity="0.07" stroke-width="3"/>
<path d="M1088 534H1015.5V606.5H1088V534Z" stroke="#53655E" stroke-opacity="0.07" stroke-width="3"/>
<path d="M1160.5 534H1088V606.5H1160.5V534Z" stroke="#53655E" stroke-opacity="0.07" stroke-width="3"/>
<path d="M1233 534H1160.5V606.5H1233V534Z" stroke="#53655E" stroke-opacity="0.07" stroke-width="3"/>
<path d="M1305.5 534H1233V606.5H1305.5V534Z" stroke="#53655E" stroke-opacity="0.07" stroke-width="3"/>
<path d="M1378 534H1305.5V606.5H1378V534Z" stroke="#53655E" stroke-opacity="0.07" stroke-width="3"/>
<path d="M73 606.5H0.5V679H73V606.5Z" stroke="#53655E" stroke-opacity="0.07" stroke-width="3"/>
<path d="M145.5 606.5H73V679H145.5V606.5Z" stroke="#53655E" stroke-opacity="0.07" stroke-width="3"/>
<path d="M218 606.5H145.5V679H218V606.5Z" stroke="#53655E" stroke-opacity="0.07" stroke-width="3"/>
<path d="M290.5 606.5H218V679H290.5V606.5Z" stroke="#53655E" stroke-opacity="0.07" stroke-width="3"/>
<path d="M363 606.5H290.5V679H363V606.5Z" stroke="#53655E" stroke-opacity="0.07" stroke-width="3"/>
<path d="M435.5 606.5H363V679H435.5V606.5Z" stroke="#53655E" stroke-opacity="0.07" stroke-width="3"/>
<path d="M508 606.5H435.5V679H508V606.5Z" stroke="#53655E" stroke-opacity="0.07" stroke-width="3"/>
<path d="M580.5 606.5H508V679H580.5V606.5Z" stroke="#53655E" stroke-opacity="0.07" stroke-width="3"/>
<path d="M653 606.5H580.5V679H653V606.5Z" stroke="#53655E" stroke-opacity="0.07" stroke-width="3"/>
<path d="M725.5 606.5H653V679H725.5V606.5Z" stroke="#53655E" stroke-opacity="0.07" stroke-width="3"/>
<path d="M798 606.5H725.5V679H798V606.5Z" stroke="#53655E" stroke-opacity="0.07" stroke-width="3"/>
<path d="M870.5 606.5H798V679H870.5V606.5Z" stroke="#53655E" stroke-opacity="0.07" stroke-width="3"/>
<path d="M943 606.5H870.5V679H943V606.5Z" stroke="#53655E" stroke-opacity="0.07" stroke-width="3"/>
<path d="M1015.5 606.5H943V679H1015.5V606.5Z" stroke="#53655E" stroke-opacity="0.07" stroke-width="3"/>
<path d="M1088 606.5H1015.5V679H1088V606.5Z" stroke="#53655E" stroke-opacity="0.07" stroke-width="3"/>
<path d="M1160.5 606.5H1088V679H1160.5V606.5Z" stroke="#53655E" stroke-opacity="0.07" stroke-width="3"/>
<path d="M1233 606.5H1160.5V679H1233V606.5Z" stroke="#53655E" stroke-opacity="0.07" stroke-width="3"/>
<path d="M1305.5 606.5H1233V679H1305.5V606.5Z" stroke="#53655E" stroke-opacity="0.07" stroke-width="3"/>
<path d="M1378 606.5H1305.5V679H1378V606.5Z" stroke="#53655E" stroke-opacity="0.07" stroke-width="3"/>
<path d="M73 679H0.5V751.5H73V679Z" stroke="#53655E" stroke-opacity="0.07" stroke-width="3"/>
<path d="M145.5 679H73V751.5H145.5V679Z" stroke="#53655E" stroke-opacity="0.07" stroke-width="3"/>
<path d="M218 679H145.5V751.5H218V679Z" stroke="#53655E" stroke-opacity="0.07" stroke-width="3"/>
<path d="M290.5 679H218V751.5H290.5V679Z" stroke="#53655E" stroke-opacity="0.07" stroke-width="3"/>
<path d="M363 679H290.5V751.5H363V679Z" stroke="#53655E" stroke-opacity="0.07" stroke-width="3"/>
<path d="M435.5 679H363V751.5H435.5V679Z" stroke="#53655E" stroke-opacity="0.07" stroke-width="3"/>
<path d="M508 679H435.5V751.5H508V679Z" stroke="#53655E" stroke-opacity="0.07" stroke-width="3"/>
<path d="M580.5 679H508V751.5H580.5V679Z" stroke="#53655E" stroke-opacity="0.07" stroke-width="3"/>
<path d="M653 679H580.5V751.5H653V679Z" stroke="#53655E" stroke-opacity="0.07" stroke-width="3"/>
<path d="M725.5 679H653V751.5H725.5V679Z" stroke="#53655E" stroke-opacity="0.07" stroke-width="3"/>
<path d="M798 679H725.5V751.5H798V679Z" stroke="#53655E" stroke-opacity="0.07" stroke-width="3"/>
<path d="M870.5 679H798V751.5H870.5V679Z" stroke="#53655E" stroke-opacity="0.07" stroke-width="3"/>
<path d="M943 679H870.5V751.5H943V679Z" stroke="#53655E" stroke-opacity="0.07" stroke-width="3"/>
<path d="M1015.5 679H943V751.5H1015.5V679Z" stroke="#53655E" stroke-opacity="0.07" stroke-width="3"/>
<path d="M1088 679H1015.5V751.5H1088V679Z" stroke="#53655E" stroke-opacity="0.07" stroke-width="3"/>
<path d="M1160.5 679H1088V751.5H1160.5V679Z" stroke="#53655E" stroke-opacity="0.07" stroke-width="3"/>
<path d="M1233 679H1160.5V751.5H1233V679Z" stroke="#53655E" stroke-opacity="0.07" stroke-width="3"/>
<path d="M1305.5 679H1233V751.5H1305.5V679Z" stroke="#53655E" stroke-opacity="0.07" stroke-width="3"/>
<path d="M1378 679H1305.5V751.5H1378V679Z" stroke="#53655E" stroke-opacity="0.07" stroke-width="3"/>
<path d="M73 751.5H0.5V824H73V751.5Z" stroke="#53655E" stroke-opacity="0.07" stroke-width="3"/>
<path d="M145.5 751.5H73V824H145.5V751.5Z" stroke="#53655E" stroke-opacity="0.07" stroke-width="3"/>
<path d="M218 751.5H145.5V824H218V751.5Z" stroke="#53655E" stroke-opacity="0.07" stroke-width="3"/>
<path d="M290.5 751.5H218V824H290.5V751.5Z" stroke="#53655E" stroke-opacity="0.07" stroke-width="3"/>
<path d="M363 751.5H290.5V824H363V751.5Z" stroke="#53655E" stroke-opacity="0.07" stroke-width="3"/>
<path d="M435.5 751.5H363V824H435.5V751.5Z" stroke="#53655E" stroke-opacity="0.07" stroke-width="3"/>
<path d="M508 751.5H435.5V824H508V751.5Z" stroke="#53655E" stroke-opacity="0.07" stroke-width="3"/>
<path d="M580.5 751.5H508V824H580.5V751.5Z" stroke="#53655E" stroke-opacity="0.07" stroke-width="3"/>
<path d="M653 751.5H580.5V824H653V751.5Z" stroke="#53655E" stroke-opacity="0.07" stroke-width="3"/>
<path d="M725.5 751.5H653V824H725.5V751.5Z" stroke="#53655E" stroke-opacity="0.07" stroke-width="3"/>
<path d="M798 751.5H725.5V824H798V751.5Z" stroke="#53655E" stroke-opacity="0.07" stroke-width="3"/>
<path d="M870.5 751.5H798V824H870.5V751.5Z" stroke="#53655E" stroke-opacity="0.07" stroke-width="3"/>
<path d="M943 751.5H870.5V824H943V751.5Z" stroke="#53655E" stroke-opacity="0.07" stroke-width="3"/>
<path d="M1015.5 751.5H943V824H1015.5V751.5Z" stroke="#53655E" stroke-opacity="0.07" stroke-width="3"/>
<path d="M1088 751.5H1015.5V824H1088V751.5Z" stroke="#53655E" stroke-opacity="0.07" stroke-width="3"/>
<path d="M1160.5 751.5H1088V824H1160.5V751.5Z" stroke="#53655E" stroke-opacity="0.07" stroke-width="3"/>
<path d="M1233 751.5H1160.5V824H1233V751.5Z" stroke="#53655E" stroke-opacity="0.07" stroke-width="3"/>
<path d="M1305.5 751.5H1233V824H1305.5V751.5Z" stroke="#53655E" stroke-opacity="0.07" stroke-width="3"/>
<path d="M1378 751.5H1305.5V824H1378V751.5Z" stroke="#53655E" stroke-opacity="0.07" stroke-width="3"/>
<path d="M73 824H0.5V896.5H73V824Z" stroke="#53655E" stroke-opacity="0.07" stroke-width="3"/>
<path d="M145.5 824H73V896.5H145.5V824Z" stroke="#53655E" stroke-opacity="0.07" stroke-width="3"/>
<path d="M218 824H145.5V896.5H218V824Z" stroke="#53655E" stroke-opacity="0.07" stroke-width="3"/>
<path d="M290.5 824H218V896.5H290.5V824Z" stroke="#53655E" stroke-opacity="0.07" stroke-width="3"/>
<path d="M363 824H290.5V896.5H363V824Z" stroke="#53655E" stroke-opacity="0.07" stroke-width="3"/>
<path d="M435.5 824H363V896.5H435.5V824Z" stroke="#53655E" stroke-opacity="0.07" stroke-width="3"/>
<path d="M508 824H435.5V896.5H508V824Z" stroke="#53655E" stroke-opacity="0.07" stroke-width="3"/>
<path d="M580.5 824H508V896.5H580.5V824Z" stroke="#53655E" stroke-opacity="0.07" stroke-width="3"/>
<path d="M653 824H580.5V896.5H653V824Z" stroke="#53655E" stroke-opacity="0.07" stroke-width="3"/>
<path d="M725.5 824H653V896.5H725.5V824Z" stroke="#53655E" stroke-opacity="0.07" stroke-width="3"/>
<path d="M798 824H725.5V896.5H798V824Z" stroke="#53655E" stroke-opacity="0.07" stroke-width="3"/>
<path d="M870.5 824H798V896.5H870.5V824Z" stroke="#53655E" stroke-opacity="0.07" stroke-width="3"/>
<path d="M943 824H870.5V896.5H943V824Z" stroke="#53655E" stroke-opacity="0.07" stroke-width="3"/>
<path d="M1015.5 824H943V896.5H1015.5V824Z" stroke="#53655E" stroke-opacity="0.07" stroke-width="3"/>
<path d="M1088 824H1015.5V896.5H1088V824Z" stroke="#53655E" stroke-opacity="0.07" stroke-width="3"/>
<path d="M1160.5 824H1088V896.5H1160.5V824Z" stroke="#53655E" stroke-opacity="0.07" stroke-width="3"/>
<path d="M1233 824H1160.5V896.5H1233V824Z" stroke="#53655E" stroke-opacity="0.07" stroke-width="3"/>
<path d="M1305.5 824H1233V896.5H1305.5V824Z" stroke="#53655E" stroke-opacity="0.07" stroke-width="3"/>
<path d="M1378 824H1305.5V896.5H1378V824Z" stroke="#53655E" stroke-opacity="0.07" stroke-width="3"/>
<path d="M73 896.5H0.5V969H73V896.5Z" stroke="#53655E" stroke-opacity="0.07" stroke-width="3"/>
<path d="M145.5 896.5H73V969H145.5V896.5Z" stroke="#53655E" stroke-opacity="0.07" stroke-width="3"/>
<path d="M218 896.5H145.5V969H218V896.5Z" stroke="#53655E" stroke-opacity="0.07" stroke-width="3"/>
<path d="M290.5 896.5H218V969H290.5V896.5Z" stroke="#53655E" stroke-opacity="0.07" stroke-width="3"/>
<path d="M363 896.5H290.5V969H363V896.5Z" stroke="#53655E" stroke-opacity="0.07" stroke-width="3"/>
<path d="M435.5 896.5H363V969H435.5V896.5Z" stroke="#53655E" stroke-opacity="0.07" stroke-width="3"/>
<path d="M508 896.5H435.5V969H508V896.5Z" stroke="#53655E" stroke-opacity="0.07" stroke-width="3"/>
<path d="M580.5 896.5H508V969H580.5V896.5Z" stroke="#53655E" stroke-opacity="0.07" stroke-width="3"/>
<path d="M653 896.5H580.5V969H653V896.5Z" stroke="#53655E" stroke-opacity="0.07" stroke-width="3"/>
<path d="M725.5 896.5H653V969H725.5V896.5Z" stroke="#53655E" stroke-opacity="0.07" stroke-width="3"/>
<path d="M798 896.5H725.5V969H798V896.5Z" stroke="#53655E" stroke-opacity="0.07" stroke-width="3"/>
<path d="M870.5 896.5H798V969H870.5V896.5Z" stroke="#53655E" stroke-opacity="0.07" stroke-width="3"/>
<path d="M943 896.5H870.5V969H943V896.5Z" stroke="#53655E" stroke-opacity="0.07" stroke-width="3"/>
<path d="M1015.5 896.5H943V969H1015.5V896.5Z" stroke="#53655E" stroke-opacity="0.07" stroke-width="3"/>
<path d="M1088 896.5H1015.5V969H1088V896.5Z" stroke="#53655E" stroke-opacity="0.07" stroke-width="3"/>
<path d="M1160.5 896.5H1088V969H1160.5V896.5Z" stroke="#53655E" stroke-opacity="0.07" stroke-width="3"/>
<path d="M1233 896.5H1160.5V969H1233V896.5Z" stroke="#53655E" stroke-opacity="0.07" stroke-width="3"/>
<path d="M1305.5 896.5H1233V969H1305.5V896.5Z" stroke="#53655E" stroke-opacity="0.07" stroke-width="3"/>
<path d="M1378 896.5H1305.5V969H1378V896.5Z" stroke="#53655E" stroke-opacity="0.07" stroke-width="3"/>
<path d="M73 969H0.5V1041.5H73V969Z" stroke="#53655E" stroke-opacity="0.07" stroke-width="3"/>
<path d="M145.5 969H73V1041.5H145.5V969Z" stroke="#53655E" stroke-opacity="0.07" stroke-width="3"/>
<path d="M218 969H145.5V1041.5H218V969Z" stroke="#53655E" stroke-opacity="0.07" stroke-width="3"/>
<path d="M290.5 969H218V1041.5H290.5V969Z" stroke="#53655E" stroke-opacity="0.07" stroke-width="3"/>
<path d="M363 969H290.5V1041.5H363V969Z" stroke="#53655E" stroke-opacity="0.07" stroke-width="3"/>
<path d="M435.5 969H363V1041.5H435.5V969Z" stroke="#53655E" stroke-opacity="0.07" stroke-width="3"/>
<path d="M508 969H435.5V1041.5H508V969Z" stroke="#53655E" stroke-opacity="0.07" stroke-width="3"/>
<path d="M580.5 969H508V1041.5H580.5V969Z" stroke="#53655E" stroke-opacity="0.07" stroke-width="3"/>
<path d="M653 969H580.5V1041.5H653V969Z" stroke="#53655E" stroke-opacity="0.07" stroke-width="3"/>
<path d="M725.5 969H653V1041.5H725.5V969Z" stroke="#53655E" stroke-opacity="0.07" stroke-width="3"/>
<path d="M798 969H725.5V1041.5H798V969Z" stroke="#53655E" stroke-opacity="0.07" stroke-width="3"/>
<path d="M870.5 969H798V1041.5H870.5V969Z" stroke="#53655E" stroke-opacity="0.07" stroke-width="3"/>
<path d="M943 969H870.5V1041.5H943V969Z" stroke="#53655E" stroke-opacity="0.07" stroke-width="3"/>
<path d="M1015.5 969H943V1041.5H1015.5V969Z" stroke="#53655E" stroke-opacity="0.07" stroke-width="3"/>
<path d="M1088 969H1015.5V1041.5H1088V969Z" stroke="#53655E" stroke-opacity="0.07" stroke-width="3"/>
<path d="M1160.5 969H1088V1041.5H1160.5V969Z" stroke="#53655E" stroke-opacity="0.07" stroke-width="3"/>
<path d="M1233 969H1160.5V1041.5H1233V969Z" stroke="#53655E" stroke-opacity="0.07" stroke-width="3"/>
<path d="M1305.5 969H1233V1041.5H1305.5V969Z" stroke="#53655E" stroke-opacity="0.07" stroke-width="3"/>
<path d="M1378 969H1305.5V1041.5H1378V969Z" stroke="#53655E" stroke-opacity="0.07" stroke-width="3"/>
</g>
<rect x="0.5" y="-46" width="1305" height="1305" rx="652.5" fill="url(#paint1_radial_1_775)"/>
<defs>
<radialGradient id="paint0_radial_1_775" cx="0" cy="0" r="1" gradientUnits="userSpaceOnUse" gradientTransform="translate(653 606.5) rotate(90) scale(652.5)">
<stop stop-color="white" stop-opacity="0"/>
<stop offset="1" stop-color="#E4F5EF"/>
</radialGradient>
<radialGradient id="paint1_radial_1_775" cx="0" cy="0" r="1" gradientUnits="userSpaceOnUse" gradientTransform="translate(653 606.5) rotate(90) scale(652.5)">
<stop stop-color="white" stop-opacity="0"/>
<stop offset="1" stop-color="#E4F5EF"/>
</radialGradient>
<clipPath id="clip0_1_775">
<rect x="0.5" y="-46" width="1305" height="1305" rx="652.5" fill="white"/>
</clipPath>
</defs>
</svg>
